<svg width="118" height="26" viewBox="0 0 118 26" fill="none" xmlns="http://www.w3.org/2000/svg">
<path d="M25 13C25 19.9036 19.4036 25.5 12.5 25.5C5.59644 25.5 0 19.9036 0 13C0 6.09644 5.59644 0.5 12.5 0.5C19.4036 0.5 25 6.09644 25 13Z" fill="#E50087"/>
<circle cx="26.5" cy="13" r="12.5" fill="#802FDE"/>
<path d="M46.416 7.212L49.696 15.34L52.96 7.212H55.184L50.848 17.5H48.544L44.176 7.212H46.416ZM54.9523 11.18C55.6349 10.4867 56.5736 10.14 57.7682 10.14C58.9416 10.14 59.8536 10.4867 60.5043 11.18C61.1656 11.8627 61.4963 12.7747 61.4963 13.916C61.4963 14.108 61.4856 14.3053 61.4643 14.508H55.9443C55.9869 14.9773 56.1789 15.3507 56.5203 15.628C56.8723 15.9053 57.2989 16.044 57.8003 16.044C58.0349 16.044 58.2429 16.0173 58.4243 15.964C58.6163 15.9107 58.7603 15.852 58.8563 15.788C58.9629 15.7133 59.0483 15.6387 59.1123 15.564C59.1869 15.4893 59.2349 15.4253 59.2563 15.372L59.2883 15.292H61.3523C61.3416 15.356 61.3149 15.4413 61.2723 15.548C61.2403 15.6547 61.1389 15.8467 60.9683 16.124C60.8083 16.3907 60.6109 16.6307 60.3763 16.844C60.1416 17.0467 59.7949 17.2333 59.3363 17.404C58.8776 17.5747 58.3603 17.66 57.7843 17.66C56.6323 17.66 55.6989 17.324 54.9843 16.652C54.2803 15.9693 53.9283 15.0573 53.9283 13.916C53.9283 12.796 54.2696 11.884 54.9523 11.18ZM59.4963 13.132C59.4963 13.1213 59.4963 13.1053 59.4963 13.084C59.4963 12.6787 59.3363 12.3587 59.0163 12.124C58.6963 11.8787 58.2856 11.756 57.7843 11.756C57.2723 11.756 56.8509 11.884 56.5203 12.14C56.2003 12.396 56.0083 12.7267 55.9443 13.132H59.4963ZM62.0376 15.052H64.1176C64.1176 15.084 64.1176 15.1267 64.1176 15.18C64.1283 15.2227 64.1603 15.308 64.2136 15.436C64.267 15.564 64.3416 15.676 64.4376 15.772C64.5336 15.868 64.6883 15.9587 64.9016 16.044C65.115 16.1187 65.371 16.156 65.6696 16.156C65.691 16.156 65.707 16.156 65.7176 16.156C66.571 16.156 66.9976 15.9 66.9976 15.388C66.9976 15.3773 66.9976 15.3667 66.9976 15.356C66.987 15.1 66.7416 14.892 66.2616 14.732C65.7816 14.572 65.2483 14.4493 64.6616 14.364C64.0856 14.268 63.5416 14.0653 63.0296 13.756C62.5283 13.436 62.2616 13.0093 62.2296 12.476C62.2296 12.4227 62.2296 12.3747 62.2296 12.332C62.2296 11.7667 62.523 11.26 63.1096 10.812C63.6963 10.364 64.4963 10.14 65.5096 10.14C66.139 10.14 66.6883 10.22 67.1576 10.38C67.6376 10.5293 67.9843 10.716 68.1976 10.94C68.4216 11.164 68.5976 11.388 68.7256 11.612C68.8536 11.836 68.9283 12.028 68.9496 12.188L68.9816 12.412H66.8856C66.8856 12.3907 66.8803 12.364 66.8696 12.332C66.859 12.2893 66.827 12.2253 66.7736 12.14C66.7203 12.0547 66.651 11.98 66.5656 11.916C66.4803 11.8413 66.347 11.7773 66.1656 11.724C65.9843 11.66 65.771 11.628 65.5256 11.628C65.1203 11.628 64.8056 11.6973 64.5816 11.836C64.3683 11.964 64.2616 12.1187 64.2616 12.3C64.2616 12.3107 64.267 12.3747 64.2776 12.492C64.2883 12.5987 64.459 12.716 64.7896 12.844C65.131 12.972 65.531 13.084 65.9896 13.18C66.459 13.2653 66.9283 13.372 67.3976 13.5C67.867 13.628 68.2723 13.836 68.6136 14.124C68.955 14.412 69.1363 14.78 69.1576 15.228C69.1576 15.2813 69.1576 15.34 69.1576 15.404C69.1576 16.0547 68.859 16.5933 68.2616 17.02C67.6643 17.4467 66.7576 17.66 65.5416 17.66C64.9123 17.66 64.3576 17.5693 63.8776 17.388C63.4083 17.2067 63.0616 16.988 62.8376 16.732C62.6136 16.476 62.4323 16.2253 62.2936 15.98C62.1656 15.724 62.091 15.5053 62.0696 15.324L62.0376 15.052ZM69.4539 10.3H70.3819V8.188H72.4459V10.3H74.1739V12.028H72.4619V15.228C72.4619 15.4307 72.4992 15.5747 72.5739 15.66C72.6485 15.7347 72.7819 15.772 72.9739 15.772H74.1739V17.5H72.9739C71.9819 17.5 71.2992 17.3507 70.9259 17.052C70.5632 16.7533 70.3819 16.1453 70.3819 15.228V12.028H69.4539V10.3ZM74.7568 15.516C74.7568 13.9373 76.4688 13.0627 79.8928 12.892H80.0368V12.78C80.0368 12.0333 79.5568 11.66 78.5968 11.66C78.1914 11.66 77.8714 11.724 77.6368 11.852C77.4128 11.98 77.2848 12.108 77.2528 12.236L77.2048 12.428H75.1088C75.1088 12.364 75.1194 12.284 75.1408 12.188C75.1621 12.0813 75.2421 11.9 75.3808 11.644C75.5194 11.3773 75.7008 11.1427 75.9248 10.94C76.1488 10.7373 76.4954 10.556 76.9648 10.396C77.4341 10.2253 77.9834 10.14 78.6128 10.14C79.7434 10.14 80.5968 10.3747 81.1728 10.844C81.7594 11.3027 82.0528 11.9427 82.0528 12.764L82.0688 14.86V15.26C82.0688 15.452 82.0954 15.5853 82.1488 15.66C82.2128 15.7347 82.3248 15.772 82.4848 15.772H82.6927V17.5H82.4688C81.8181 17.5 81.3221 17.4413 80.9808 17.324C80.6394 17.196 80.3941 16.9667 80.2448 16.636C79.6794 17.3187 78.7888 17.66 77.5728 17.66C76.6341 17.66 75.9301 17.4573 75.4608 17.052C74.9914 16.6467 74.7568 16.1347 74.7568 15.516ZM76.8688 15.468C76.8688 15.6813 76.9701 15.8467 77.1728 15.964C77.3754 16.0813 77.6314 16.1453 77.9408 16.156C77.9621 16.156 77.9834 16.156 78.0048 16.156C78.4954 16.156 78.9541 16.0173 79.3808 15.74C79.8181 15.4627 80.0368 15.0733 80.0368 14.572V14.156C79.6101 14.188 79.2634 14.22 78.9968 14.252C78.7408 14.284 78.4208 14.3427 78.0368 14.428C77.6528 14.5133 77.3594 14.6467 77.1568 14.828C76.9648 14.9987 76.8688 15.212 76.8688 15.468ZM89.656 7.212V13.26C89.656 14.0813 89.8373 14.7267 90.2 15.196C90.5733 15.6547 91.2347 15.884 92.184 15.884C93.144 15.884 93.8053 15.6547 94.168 15.196C94.5413 14.7267 94.728 14.0813 94.728 13.26V7.212H96.808V13.26C96.808 13.7613 96.7707 14.2147 96.696 14.62C96.6213 15.0147 96.4827 15.4093 96.28 15.804C96.0773 16.1987 95.8053 16.5293 95.464 16.796C95.1333 17.052 94.6907 17.26 94.136 17.42C93.5813 17.58 92.9307 17.66 92.184 17.66C91.2347 17.66 90.44 17.548 89.8 17.324C89.1707 17.0893 88.7013 16.7533 88.392 16.316C88.0827 15.8787 87.8693 15.4253 87.752 14.956C87.6347 14.476 87.576 13.9107 87.576 13.26V7.212H89.656ZM99.8546 14.284C99.8546 14.3267 99.86 14.3853 99.8706 14.46C99.8813 14.5347 99.924 14.6627 99.9986 14.844C100.084 15.0253 100.201 15.1853 100.351 15.324C100.5 15.4627 100.74 15.5907 101.071 15.708C101.401 15.8253 101.791 15.884 102.239 15.884C102.975 15.884 103.524 15.772 103.887 15.548C104.249 15.3133 104.431 15.0147 104.431 14.652C104.431 14.3533 104.313 14.1027 104.079 13.9C103.844 13.6867 103.535 13.516 103.151 13.388C102.767 13.26 102.345 13.1427 101.887 13.036C101.428 12.9187 100.969 12.7907 100.511 12.652C100.052 12.5133 99.6306 12.348 99.2466 12.156C98.8626 11.964 98.548 11.6973 98.3026 11.356C98.068 11.004 97.9453 10.5987 97.9346 10.14C97.9346 10.1293 97.9346 10.1133 97.9346 10.092C97.9346 9.14267 98.308 8.40133 99.0546 7.868C99.812 7.324 100.836 7.052 102.127 7.052C102.895 7.052 103.561 7.15333 104.127 7.356C104.703 7.548 105.124 7.788 105.391 8.076C105.657 8.364 105.865 8.652 106.015 8.94C106.175 9.21733 106.265 9.45733 106.287 9.66L106.319 9.948H104.111C104.111 9.916 104.1 9.87867 104.079 9.836C104.068 9.78267 104.02 9.692 103.935 9.564C103.86 9.436 103.759 9.324 103.631 9.228C103.503 9.12133 103.305 9.03067 103.039 8.956C102.783 8.87067 102.484 8.828 102.143 8.828C101.492 8.828 100.985 8.94 100.623 9.164C100.271 9.388 100.095 9.66533 100.095 9.996C100.095 10.0173 100.095 10.0387 100.095 10.06C100.116 10.3053 100.249 10.5133 100.495 10.684C100.74 10.8547 101.055 10.9933 101.439 11.1C101.833 11.196 102.26 11.292 102.719 11.388C103.177 11.484 103.636 11.6067 104.095 11.756C104.553 11.9053 104.969 12.092 105.343 12.316C105.727 12.5293 106.036 12.8333 106.271 13.228C106.505 13.6227 106.623 14.092 106.623 14.636C106.623 15.596 106.239 16.3427 105.471 16.876C104.703 17.3987 103.625 17.66 102.239 17.66C101.652 17.66 101.113 17.6013 100.623 17.484C100.143 17.356 99.748 17.196 99.4386 17.004C99.1293 16.8013 98.8573 16.5827 98.6226 16.348C98.388 16.1027 98.212 15.8573 98.0946 15.612C97.9773 15.3667 97.8813 15.148 97.8066 14.956C97.732 14.7533 97.6893 14.588 97.6786 14.46L97.6466 14.284H99.8546ZM106.531 17.5L110.883 7.212H113.203L117.539 17.5H115.315L114.611 15.756H109.475L108.771 17.5H106.531ZM113.907 14.012L112.051 9.372L110.179 14.012H113.907Z" fill="black"/>
</svg>
